# xmcd
#
# Track frame offsets: 
#        150
#        17345
#        35217
#        48892
#        66305
#        81735
#        98477
#        114365
#        133947
#        150640
#        170992
#        186507
#
# Disc length: 2761 seconds
#
# Revision: 0
# Processed by: cddbd v1.5.1PL2 Copyright (c) Steve Scherf et al.
# Submitted via: ExactAudioCopy v0.95b3
#
DISCID=a80ac70c
DTITLE=鄧麗君 - 島國之情歌第一集
DYEAR=1977
DGENRE=Pop
TTITLE0=情人的關懷
TTITLE1=請你別再找我
TTITLE2=不論今宵或明天
TTITLE3=相聚更甜蜜
TTITLE4=雨下的花朵.
TTITLE5=冬之戀情
TTITLE6=再見我的愛人
TTITLE7=誰來愛我
TTITLE8=再來一杯
TTITLE9=夜霧下的姑娘
TTITLE10=逃避行
TTITLE11=愛的理想
EXTD=
EXTT0=
EXTT1=
EXTT2=
EXTT3=
EXTT4=
EXTT5=
EXTT6=
EXTT7=
EXTT8=
EXTT9=
EXTT10=
EXTT11=
PLAYORDER=
